<svg width="48" height="48" viewBox="0 0 48 48" fill="none" xmlns="http://www.w3.org/2000/svg">
<g clip-path="url(#clip0_2559_2870)">
<g filter="url(#filter0_d_2559_2870)">
<circle cx="24" cy="24" r="24" fill="#F3F5F5"/>
</g>
<path fill-rule="evenodd" clip-rule="evenodd" d="M32 24.0005C32 24.2657 31.8947 24.52 31.7071 24.7075C31.5196 24.895 31.2653 25.0004 31.0001 25.0004H19.4154L23.7089 29.2919C23.8019 29.3849 23.8756 29.4952 23.9259 29.6167C23.9763 29.7382 24.0022 29.8683 24.0022 29.9998C24.0022 30.1313 23.9763 30.2615 23.9259 30.3829C23.8756 30.5044 23.8019 30.6148 23.7089 30.7077C23.616 30.8007 23.5056 30.8744 23.3841 30.9248C23.2627 30.9751 23.1325 31.001 23.001 31.001C22.8695 31.001 22.7393 30.9751 22.6179 30.9248C22.4964 30.8744 22.386 30.8007 22.2931 30.7077L16.2938 24.7084C16.2006 24.6155 16.1268 24.5052 16.0764 24.3837C16.0259 24.2622 16 24.132 16 24.0005C16 23.869 16.0259 23.7387 16.0764 23.6173C16.1268 23.4958 16.2006 23.3854 16.2938 23.2926L22.2931 17.2932C22.386 17.2003 22.4964 17.1265 22.6179 17.0762C22.7393 17.0259 22.8695 17 23.001 17C23.1325 17 23.2627 17.0259 23.3841 17.0762C23.5056 17.1265 23.616 17.2003 23.7089 17.2932C23.8967 17.481 24.0022 17.7356 24.0022 18.0012C24.0022 18.1326 23.9763 18.2628 23.9259 18.3843C23.8756 18.5057 23.8019 18.6161 23.7089 18.7091L19.4154 23.0006H31.0001C31.2653 23.0006 31.5196 23.1059 31.7071 23.2935C31.8947 23.481 32 23.7353 32 24.0005Z" fill="#003466"/>
</g>
<defs>
<filter id="filter0_d_2559_2870" x="-4" y="-4" width="56" height="56" filterUnits="userSpaceOnUse" color-interpolation-filters="sRGB">
<feFlood flood-opacity="0" result="BackgroundImageFix"/>
<feColorMatrix in="SourceAlpha" type="matrix" values="0 0 0 0 0 0 0 0 0 0 0 0 0 0 0 0 0 0 127 0" result="hardAlpha"/>
<feOffset/>
<feGaussianBlur stdDeviation="2"/>
<feComposite in2="hardAlpha" operator="out"/>
<feColorMatrix type="matrix" values="0 0 0 0 0 0 0 0 0 0 0 0 0 0 0 0 0 0 0.12 0"/>
<feBlend mode="normal" in2="BackgroundImageFix" result="effect1_dropShadow_2559_2870"/>
<feBlend mode="normal" in="SourceGraphic" in2="effect1_dropShadow_2559_2870" result="shape"/>
</filter>
<clipPath id="clip0_2559_2870">
<rect width="48" height="48" fill="white"/>
</clipPath>
</defs>
</svg>
