<svg width="40" height="40" viewBox="0 0 40 40" fill="none" xmlns="http://www.w3.org/2000/svg">
<path d="M22.747 6.01221C21.9805 5.35886 21.0062 5 19.999 5C18.9918 5 18.0175 5.35886 17.2509 6.01221L15.3474 7.63477C15.1213 7.82764 14.8401 7.94427 14.5438 7.96804L12.0514 8.16574C11.0474 8.24582 10.1048 8.68097 9.39256 9.39316C8.68037 10.1054 8.24521 11.048 8.16514 12.052L7.96744 14.5459C7.94327 14.8423 7.82614 15.1235 7.63276 15.3494L6.01161 17.253C5.35863 18.0194 5 18.9934 5 20.0003C5 21.0072 5.35863 21.9812 6.01161 22.7476L7.63276 24.6526C7.82563 24.8787 7.94225 25.1599 7.96603 25.4562L8.16514 27.9486C8.24521 28.9526 8.68037 29.8952 9.39256 30.6074C10.1048 31.3196 11.0474 31.7548 12.0514 31.8349L14.5438 32.0326C14.8407 32.0564 15.1225 32.1736 15.3488 32.3672L17.2509 33.9884C18.0175 34.6417 18.9918 35.0006 19.999 35.0006C21.0062 35.0006 21.9805 34.6417 22.747 33.9884L24.6506 32.3672C24.8771 32.1741 25.1588 32.0575 25.4556 32.034L27.948 31.8349C28.952 31.7548 29.8946 31.3196 30.6068 30.6074C31.319 29.8952 31.7542 28.9526 31.8343 27.9486L32.032 25.4562C32.0554 25.1594 32.1721 24.8777 32.3652 24.6512L33.9878 22.7491C34.6411 21.9825 35 21.0082 35 20.001C35 18.9938 34.6411 18.0195 33.9878 17.253L32.3652 15.3494C32.1721 15.1229 32.0554 14.8412 32.032 14.5444L31.8343 12.052C31.7542 11.048 31.319 10.1054 30.6068 9.39316C29.8946 8.68097 28.952 8.24582 27.948 8.16574L25.4541 7.96804C25.1579 7.94427 24.8767 7.82764 24.6506 7.63477L22.747 6.01221ZM23.9926 14.0092L25.9908 16.006L16.0054 25.9928L14.0072 23.9946L23.9926 14.0092ZM17.5023 17.5043C17.3069 17.7066 17.0732 17.868 16.8147 17.979C16.5563 18.09 16.2783 18.1485 15.9971 18.1509C15.7158 18.1534 15.4369 18.0998 15.1766 17.9933C14.9163 17.8867 14.6798 17.7295 14.4809 17.5306C14.282 17.3317 14.1247 17.0952 14.0182 16.8349C13.9117 16.5745 13.8581 16.2956 13.8605 16.0144C13.863 15.7331 13.9214 15.4551 14.0324 15.1967C14.1434 14.9383 14.3048 14.7045 14.5071 14.5091C14.9066 14.1233 15.4417 13.9098 15.9971 13.9146C16.5525 13.9194 17.0838 14.1422 17.4765 14.5349C17.8692 14.9277 18.092 15.459 18.0968 16.0144C18.1017 16.5697 17.8882 17.1048 17.5023 17.5043ZM22.4957 25.4929C22.2899 25.2984 22.1253 25.0646 22.0114 24.8054C21.8976 24.5461 21.8369 24.2667 21.8329 23.9836C21.8289 23.7005 21.8817 23.4195 21.9881 23.1571C22.0946 22.8948 22.2526 22.6564 22.4527 22.4562C22.6529 22.2559 22.8912 22.0978 23.1535 21.9913C23.4158 21.8847 23.6968 21.8317 23.9799 21.8356C24.263 21.8395 24.5424 21.9001 24.8017 22.0138C25.061 22.1275 25.2948 22.2921 25.4894 22.4977C25.8636 22.8992 26.0673 23.4303 26.0576 23.9791C26.0479 24.5279 25.8256 25.0515 25.4375 25.4396C25.0494 25.8277 24.5259 26.05 23.9771 26.0596C23.4283 26.0693 22.8972 25.8656 22.4957 25.4915" fill="#003466"/>
</svg>
