<svg width="62" height="20" viewBox="0 0 62 20" fill="none" xmlns="http://www.w3.org/2000/svg">
<path d="M32.0649 6.36824C32.0295 9.14318 34.5505 10.6916 36.4495 11.6123C38.4005 12.5569 39.0559 13.1627 39.0481 14.0075C39.0336 15.3003 37.4918 15.8709 36.0491 15.8931C33.5321 15.9319 32.0685 15.2169 30.9051 14.6762L29.9983 18.8976C31.1657 19.4328 33.3272 19.8996 35.5686 19.92C40.8301 19.92 44.2724 17.3359 44.291 13.3294C44.3116 8.24462 37.222 7.96318 37.2705 5.6904C37.2872 5.00125 37.9481 4.26583 39.3964 4.07884C40.1133 3.98438 42.0922 3.91209 44.3358 4.94004L45.2164 0.855707C44.0098 0.418598 42.4591 4.3869e-05 40.5284 4.3869e-05C35.5761 4.3869e-05 32.093 2.61932 32.0649 6.36824ZM53.678 0.351851C52.7172 0.351851 51.9076 0.909441 51.5462 1.7651L44.0304 19.62H49.2881L50.3343 16.7432H56.7591L57.366 19.62H62L57.9562 0.351851H53.678ZM54.4135 5.55691L55.9308 12.7923H51.7753L54.4135 5.55691ZM25.6903 0.352091L21.546 19.6198H26.5561L30.6985 0.35161H25.6903V0.352091ZM18.2786 0.35161L13.0638 13.4665L10.9544 2.31547C10.7069 1.07065 9.7294 0.351851 8.64391 0.351851H0.119398L0 0.911369C1.75005 1.2892 3.73841 1.8986 4.94305 2.55065C5.68027 2.94896 5.89048 3.29715 6.13267 4.24366L10.128 19.62H15.4225L23.5397 0.351851H18.2786" fill="url(#paint0_linear_2516_31236)"/>
<defs>
<linearGradient id="paint0_linear_2516_31236" x1="28.5039" y1="20.3196" x2="29.0776" y2="-0.138656" gradientUnits="userSpaceOnUse">
<stop stop-color="#222357"/>
<stop offset="1" stop-color="#254AA5"/>
</linearGradient>
</defs>
</svg>
