<svg width="40" height="40" viewBox="0 0 40 40" fill="none" xmlns="http://www.w3.org/2000/svg">
<path d="M35.4231 19.984C35.4231 19.63 35.2491 19.3188 34.9843 19.1236L34.9899 19.114L31.2603 16.9608L33.4071 13.2424L33.3999 13.238C33.4678 13.0847 33.4985 12.9177 33.4897 12.7503C33.4808 12.583 33.4327 12.4201 33.3491 12.2748C33.265 12.1297 33.1478 12.0064 33.007 11.9151C32.8663 11.8238 32.706 11.7669 32.5391 11.7492V11.7388H28.2319V7.44399H28.2231C28.2052 7.27737 28.1483 7.11732 28.057 6.9768C27.9657 6.83628 27.8425 6.71925 27.6975 6.63519C27.5521 6.55138 27.3888 6.50317 27.2211 6.49448C27.0535 6.48579 26.8861 6.51687 26.7327 6.58519L26.7275 6.57599L22.9351 8.76559L20.8351 5.12799L20.8275 5.13239C20.7287 4.99709 20.5993 4.88696 20.45 4.81094C20.3007 4.73491 20.1355 4.69512 19.9679 4.69479C19.6139 4.69479 19.3023 4.86879 19.1075 5.13359L19.0979 5.12799L16.9631 8.82559L13.2871 6.70319L13.2827 6.71079C13.1295 6.64298 12.9624 6.61225 12.7951 6.62107C12.6277 6.6299 12.4648 6.67804 12.3195 6.76159C12.1743 6.8457 12.051 6.96289 11.9596 7.10363C11.8682 7.24438 11.8113 7.40471 11.7935 7.57159H11.7827V11.8412H7.53795V11.8496C7.37133 11.8675 7.21127 11.9244 7.07075 12.0158C6.93023 12.1071 6.8132 12.2302 6.72915 12.3752C6.64556 12.5206 6.59743 12.6837 6.58868 12.8512C6.57992 13.0187 6.61078 13.1859 6.67875 13.3392L6.66955 13.3448L8.76795 16.9796L5.01035 19.1492L5.01475 19.1568C4.87944 19.2557 4.76932 19.385 4.69329 19.5343C4.61727 19.6837 4.57748 19.8488 4.57715 20.0164C4.57715 20.3704 4.75115 20.682 5.01595 20.8768L5.01035 20.8864L8.73995 23.0396L6.59315 26.758L6.60035 26.762C6.53254 26.9152 6.5018 27.0823 6.51063 27.2497C6.51945 27.417 6.56759 27.5799 6.65115 27.7252C6.73532 27.8703 6.85254 27.9936 6.99328 28.0849C7.13402 28.1762 7.29432 28.233 7.46115 28.2508V28.2616H11.7679V32.556H11.7767C11.8135 32.8824 11.9963 33.188 12.3023 33.3648C12.4479 33.4485 12.6111 33.4967 12.7788 33.5054C12.9464 33.5141 13.1138 33.483 13.2671 33.4148L13.2723 33.424L17.0647 31.2344L19.1647 34.872L19.1723 34.8676C19.2712 35.0029 19.4005 35.113 19.5499 35.1891C19.6992 35.2651 19.8644 35.3049 20.0319 35.3052C20.3859 35.3052 20.6975 35.1312 20.8923 34.8668L20.9015 34.872L23.0363 31.1744L26.7127 33.2968L26.7171 33.2892C26.8704 33.357 27.0375 33.3877 27.2048 33.3789C27.3722 33.3701 27.5351 33.3219 27.6803 33.2384C27.8256 33.1543 27.9489 33.0371 28.0403 32.8964C28.1317 32.7556 28.1886 32.5953 28.2063 32.4284H28.2171V28.1592H32.4623V28.1508C32.629 28.1329 32.789 28.0759 32.9295 27.9846C33.0701 27.8933 33.1871 27.7702 33.2711 27.6252C33.3547 27.4797 33.4028 27.3166 33.4116 27.149C33.4203 26.9815 33.3895 26.8142 33.3215 26.6608L33.3307 26.6556L31.2323 23.0208L34.9899 20.8512L34.9855 20.8436C35.1209 20.7448 35.2311 20.6154 35.3071 20.4661C35.3831 20.3167 35.4229 20.1516 35.4231 19.984ZM17.4859 24.542L13.5475 22.802L15.2855 25.812L14.3031 26.3792L11.6383 21.7644L12.6483 21.1808L16.4603 22.8456L14.7863 19.9464L15.7691 19.3792L18.4331 23.994L17.4859 24.542ZM19.3467 23.4676L16.6823 18.8524L19.9483 16.9672L20.4475 17.832L18.1639 19.15L18.7231 20.1188L20.9579 18.8288L21.4571 19.6928L19.2223 20.9836L19.8295 22.0352L22.1131 20.7172L22.6123 21.582L19.3467 23.4676ZM26.9091 19.1016L24.2699 16.4L25.2967 20.032L24.2523 20.6352L20.2663 16.7836L21.3663 16.1484L24.1015 19.0156L23.0547 15.1736L23.8227 14.7304L26.6199 17.562L25.5039 13.7596L26.6039 13.1244L27.9539 18.4988L26.9091 19.1016Z" fill="#003466"/>
</svg>
