<svg width="48" height="48" viewBox="0 0 48 48" fill="none" xmlns="http://www.w3.org/2000/svg">
<g clip-path="url(#clip0_2559_2880)">
<g filter="url(#filter0_d_2559_2880)">
<circle cx="24" cy="24" r="24" fill="#F3F5F5"/>
</g>
<path fill-rule="evenodd" clip-rule="evenodd" d="M16 23.9995C16 23.7343 16.1053 23.48 16.2929 23.2925C16.4804 23.105 16.7347 22.9996 16.9999 22.9996H28.5846L24.2911 18.7081C24.1981 18.6151 24.1244 18.5048 24.0741 18.3833C24.0237 18.2618 23.9978 18.1317 23.9978 18.0002C23.9978 17.8687 24.0237 17.7385 24.0741 17.6171C24.1244 17.4956 24.1981 17.3852 24.2911 17.2923C24.384 17.1993 24.4944 17.1256 24.6159 17.0752C24.7373 17.0249 24.8675 16.999 24.999 16.999C25.1305 16.999 25.2607 17.0249 25.3821 17.0752C25.5036 17.1256 25.614 17.1993 25.7069 17.2923L31.7062 23.2916C31.7994 23.3845 31.8732 23.4948 31.9236 23.6163C31.9741 23.7378 32 23.868 32 23.9995C32 24.131 31.9741 24.2613 31.9236 24.3827C31.8732 24.5042 31.7994 24.6146 31.7062 24.7074L25.7069 30.7068C25.614 30.7997 25.5036 30.8735 25.3821 30.9238C25.2607 30.9741 25.1305 31 24.999 31C24.8675 31 24.7373 30.9741 24.6159 30.9238C24.4944 30.8735 24.384 30.7997 24.2911 30.7068C24.1033 30.519 23.9978 30.2644 23.9978 29.9988C23.9978 29.8674 24.0237 29.7372 24.0741 29.6157C24.1244 29.4943 24.1981 29.3839 24.2911 29.2909L28.5846 24.9994H16.9999C16.7347 24.9994 16.4804 24.8941 16.2929 24.7065C16.1053 24.519 16 24.2647 16 23.9995Z" fill="#003466"/>
</g>
<defs>
<filter id="filter0_d_2559_2880" x="-4" y="-4" width="56" height="56" filterUnits="userSpaceOnUse" color-interpolation-filters="sRGB">
<feFlood flood-opacity="0" result="BackgroundImageFix"/>
<feColorMatrix in="SourceAlpha" type="matrix" values="0 0 0 0 0 0 0 0 0 0 0 0 0 0 0 0 0 0 127 0" result="hardAlpha"/>
<feOffset/>
<feGaussianBlur stdDeviation="2"/>
<feComposite in2="hardAlpha" operator="out"/>
<feColorMatrix type="matrix" values="0 0 0 0 0 0 0 0 0 0 0 0 0 0 0 0 0 0 0.12 0"/>
<feBlend mode="normal" in2="BackgroundImageFix" result="effect1_dropShadow_2559_2880"/>
<feBlend mode="normal" in="SourceGraphic" in2="effect1_dropShadow_2559_2880" result="shape"/>
</filter>
<clipPath id="clip0_2559_2880">
<rect width="48" height="48" fill="white"/>
</clipPath>
</defs>
</svg>
