<svg width="111" height="16" viewBox="0 0 111 16" fill="none" xmlns="http://www.w3.org/2000/svg">
<g clip-path="url(#clip0_2736_590)">
<path d="M0 0.216797H2.21444V3.7964L2.0792 4.96186H2.21444C2.41729 4.61777 2.73283 4.32363 3.16107 4.07944C3.5893 3.83525 4.11896 3.71316 4.75005 3.71316C5.27971 3.71316 5.7812 3.82415 6.25452 4.04615C6.7391 4.25704 7.1617 4.55673 7.52232 4.94521C7.89421 5.32259 8.18722 5.77767 8.40134 6.31045C8.61545 6.84323 8.72251 7.42596 8.72251 8.05863C8.72251 8.69131 8.61545 9.27403 8.40134 9.80681C8.18722 10.3396 7.89421 10.8003 7.52232 11.1887C7.1617 11.5661 6.7391 11.8658 6.25452 12.0878C5.7812 12.2987 5.27971 12.4041 4.75005 12.4041C4.11896 12.4041 3.5893 12.2821 3.16107 12.0379C2.73283 11.7937 2.41729 11.4995 2.21444 11.1554H2.0792V12.1378H0V0.216797ZM4.29364 10.3896C4.58664 10.3896 4.86275 10.3341 5.12194 10.2231C5.39241 10.1121 5.62906 9.95666 5.83191 9.75686C6.03476 9.55707 6.19817 9.31288 6.32213 9.02429C6.44609 8.73569 6.50808 8.41382 6.50808 8.05863C6.50808 7.70345 6.44609 7.38156 6.32213 7.09297C6.19817 6.80438 6.03476 6.56019 5.83191 6.3604C5.62906 6.16061 5.39241 6.00522 5.12194 5.89422C4.86275 5.78322 4.58664 5.72773 4.29364 5.72773C4.00064 5.72773 3.7189 5.78322 3.44844 5.89422C3.18924 5.99412 2.95822 6.14396 2.75537 6.34375C2.55252 6.54354 2.38911 6.78773 2.26515 7.07632C2.14119 7.36491 2.0792 7.69235 2.0792 8.05863C2.0792 8.42492 2.14119 8.75235 2.26515 9.04094C2.38911 9.32953 2.55252 9.57372 2.75537 9.77351C2.95822 9.9733 3.18924 10.1287 3.44844 10.2397C3.7189 10.3396 4.00064 10.3896 4.29364 10.3896Z" fill="white"/>
<path d="M15.7835 11.0721H15.6483C15.3891 11.4828 15.0397 11.8102 14.6002 12.0544C14.1607 12.2875 13.6592 12.404 13.0958 12.404C12.0477 12.404 11.2645 12.0877 10.7461 11.455C10.239 10.8224 9.98535 9.97879 9.98535 8.92434V3.97949H12.1998V8.65795C12.1998 9.24622 12.3294 9.68466 12.5886 9.97324C12.8591 10.2507 13.2479 10.3895 13.755 10.3895C14.0593 10.3895 14.3241 10.3284 14.5495 10.2063C14.7862 10.0731 14.9834 9.9011 15.1411 9.69021C15.3102 9.46821 15.4342 9.21292 15.513 8.92434C15.6032 8.62465 15.6483 8.30831 15.6483 7.97533V3.97949H17.8627V12.1377H15.7835V11.0721Z" fill="white"/>
<path d="M23.4977 16.0001C22.9117 16.0001 22.3877 15.9224 21.9257 15.767C21.4749 15.6227 21.0805 15.4285 20.7424 15.1843C20.4043 14.9512 20.1226 14.6904 19.8972 14.4018C19.6718 14.1132 19.5084 13.8246 19.407 13.536L21.52 12.7035C21.6777 13.1364 21.9369 13.4694 22.2976 13.7025C22.6582 13.9467 23.0582 14.0688 23.4977 14.0688C24.1965 14.0688 24.7487 13.8523 25.1544 13.4195C25.56 12.9977 25.7629 12.4038 25.7629 11.638V11.0719H25.6277C25.3685 11.4271 25.0248 11.7101 24.5965 11.921C24.1795 12.1208 23.6837 12.2207 23.109 12.2207C22.6131 12.2207 22.1285 12.1208 21.6552 11.921C21.1932 11.7212 20.7818 11.4382 20.4212 11.0719C20.0606 10.6945 19.7676 10.245 19.5422 9.72329C19.3168 9.20162 19.2041 8.61889 19.2041 7.97512C19.2041 7.33134 19.3168 6.74862 19.5422 6.22694C19.7676 5.69416 20.0606 5.24463 20.4212 4.87834C20.7818 4.50096 21.1932 4.21237 21.6552 4.01258C22.1285 3.81278 22.6131 3.71289 23.109 3.71289C23.6837 3.71289 24.1795 3.81833 24.5965 4.02923C25.0248 4.22902 25.3685 4.50651 25.6277 4.86169H25.7629V3.97928H27.8759V11.5547C27.8759 12.2429 27.7689 12.8589 27.5547 13.4028C27.3406 13.9578 27.042 14.424 26.6588 14.8013C26.2757 15.1898 25.8136 15.484 25.2727 15.6838C24.743 15.8947 24.1514 16.0001 23.4977 16.0001ZM23.5823 10.2561C23.8527 10.2561 24.1176 10.2061 24.3768 10.1062C24.6472 10.0063 24.8839 9.86204 25.0867 9.67335C25.2896 9.47355 25.453 9.23491 25.577 8.95742C25.7009 8.66884 25.7629 8.3414 25.7629 7.97512C25.7629 7.60883 25.7009 7.28139 25.577 6.99281C25.453 6.70422 25.2896 6.46558 25.0867 6.27688C24.8839 6.07709 24.6472 5.92725 24.3768 5.82735C24.1176 5.72746 23.8527 5.67751 23.5823 5.67751C23.3118 5.67751 23.047 5.72746 22.7878 5.82735C22.5286 5.92725 22.2976 6.07709 22.0947 6.27688C21.8919 6.47668 21.7285 6.72087 21.6045 7.00945C21.4805 7.28694 21.4185 7.60883 21.4185 7.97512C21.4185 8.3414 21.4805 8.66884 21.6045 8.95742C21.7285 9.23491 21.8919 9.47355 22.0947 9.67335C22.2976 9.86204 22.5286 10.0063 22.7878 10.1062C23.047 10.2061 23.3118 10.2561 23.5823 10.2561Z" fill="white"/>
<path d="M30.9981 2.79709C30.8065 2.79709 30.6205 2.76379 30.4402 2.69719C30.2712 2.61949 30.119 2.5196 29.9838 2.3975C29.8598 2.26431 29.7584 2.11446 29.6795 1.94797C29.6119 1.78148 29.5781 1.59833 29.5781 1.39854C29.5781 1.19875 29.6119 1.01561 29.6795 0.849115C29.7584 0.682622 29.8598 0.538328 29.9838 0.416233C30.119 0.283039 30.2712 0.183142 30.4402 0.116545C30.6205 0.0388483 30.8065 0 30.9981 0C31.3925 0 31.7306 0.138744 32.0123 0.416233C32.294 0.682622 32.4349 1.01006 32.4349 1.39854C32.4349 1.78703 32.294 2.12001 32.0123 2.3975C31.7306 2.66389 31.3925 2.79709 30.9981 2.79709ZM29.8993 12.1374V3.97919H32.1137V12.1374H29.8993Z" fill="white"/>
<path d="M36.218 5.04483H36.3532C36.6124 4.63415 36.9617 4.31226 37.4012 4.07917C37.8407 3.83498 38.3422 3.71289 38.9057 3.71289C39.4241 3.71289 39.8805 3.79614 40.2749 3.96263C40.6694 4.12912 40.9905 4.36776 41.2385 4.67855C41.4977 4.97824 41.6892 5.34452 41.8132 5.7774C41.9484 6.19919 42.0161 6.67092 42.0161 7.1926V12.1375H39.8016V7.45899C39.8016 6.87071 39.6664 6.43783 39.3959 6.16034C39.1367 5.87175 38.7536 5.72746 38.2464 5.72746C37.9422 5.72746 37.6717 5.79405 37.4351 5.92725C37.2097 6.04934 37.0124 6.22139 36.8434 6.44338C36.6856 6.65427 36.5617 6.90956 36.4715 7.20925C36.3926 7.49784 36.3532 7.80862 36.3532 8.14161V12.1375H34.1387V3.97928H36.218V5.04483Z" fill="white"/>
<path d="M45.1806 12.2368C44.7749 12.2368 44.4256 12.098 44.1326 11.8205C43.8508 11.5319 43.71 11.1878 43.71 10.7883C43.71 10.3887 43.8508 10.0501 44.1326 9.77268C44.4256 9.49519 44.7749 9.35645 45.1806 9.35645C45.5863 9.35645 45.93 9.49519 46.2118 9.77268C46.4935 10.0501 46.6344 10.3887 46.6344 10.7883C46.6344 11.1878 46.4935 11.5319 46.2118 11.8205C45.93 12.098 45.5863 12.2368 45.1806 12.2368Z" fill="white"/>
<path d="M51.6641 12.4038C51.1231 12.4038 50.6385 12.3372 50.2103 12.2041C49.7933 12.0709 49.4271 11.8988 49.1115 11.6879C48.8073 11.4659 48.5481 11.2162 48.334 10.9387C48.1198 10.6501 47.9564 10.3615 47.8437 10.0729L49.8215 9.24046C50.0131 9.66225 50.2667 9.97858 50.5822 10.1895C50.909 10.3893 51.2696 10.4892 51.6641 10.4892C52.0698 10.4892 52.3909 10.417 52.6276 10.2727C52.8643 10.1284 52.9826 9.95639 52.9826 9.75659C52.9826 9.5346 52.8812 9.35701 52.6783 9.22381C52.4867 9.07952 52.1487 8.95188 51.6641 8.84088L50.4977 8.59114C50.2385 8.53564 49.968 8.44685 49.6863 8.32475C49.4158 8.20266 49.1679 8.04726 48.9425 7.85857C48.7171 7.66988 48.5312 7.44234 48.3847 7.17595C48.2382 6.90956 48.1649 6.59877 48.1649 6.24359C48.1649 5.844 48.2494 5.48882 48.4185 5.17803C48.5988 4.86724 48.8411 4.6064 49.1454 4.39551C49.4496 4.17352 49.8046 4.00703 50.2103 3.89603C50.6273 3.77394 51.0724 3.71289 51.5457 3.71289C52.3346 3.71289 53.0389 3.86828 53.6587 4.17907C54.2786 4.47876 54.735 4.96159 55.028 5.62756L53.1178 6.39343C52.96 6.07154 52.729 5.83845 52.4247 5.69416C52.1205 5.54986 51.8162 5.47772 51.5119 5.47772C51.1964 5.47772 50.9203 5.54431 50.6836 5.67751C50.447 5.7996 50.3286 5.96055 50.3286 6.16034C50.3286 6.34903 50.4244 6.49888 50.616 6.60987C50.8189 6.72087 51.0893 6.82076 51.4274 6.90956L52.6952 7.20925C53.5404 7.40904 54.1659 7.73092 54.5716 8.17491C54.9885 8.60779 55.197 9.12392 55.197 9.72329C55.197 10.0785 55.1125 10.417 54.9435 10.7389C54.7744 11.0608 54.5321 11.3494 54.2166 11.6047C53.9123 11.8489 53.5404 12.0431 53.1009 12.1874C52.6727 12.3317 52.1937 12.4038 51.6641 12.4038Z" fill="white"/>
<path d="M60.5601 3.71289C61.2024 3.71289 61.7884 3.82388 62.3181 4.04588C62.859 4.25677 63.3211 4.55646 63.7042 4.94494C64.0987 5.32232 64.4029 5.7774 64.617 6.31018C64.8424 6.84296 64.9551 7.42569 64.9551 8.05836C64.9551 8.69104 64.8424 9.27376 64.617 9.80654C64.4029 10.3393 64.0987 10.8 63.7042 11.1884C63.3211 11.5658 62.859 11.8655 62.3181 12.0875C61.7884 12.2984 61.2024 12.4038 60.5601 12.4038C59.9177 12.4038 59.3261 12.2984 58.7851 12.0875C58.2555 11.8655 57.7934 11.5658 57.399 11.1884C57.0158 10.8 56.7116 10.3393 56.4862 9.80654C56.2721 9.27376 56.165 8.69104 56.165 8.05836C56.165 7.42569 56.2721 6.84296 56.4862 6.31018C56.7116 5.7774 57.0158 5.32232 57.399 4.94494C57.7934 4.55646 58.2555 4.25677 58.7851 4.04588C59.3261 3.82388 59.9177 3.71289 60.5601 3.71289ZM60.5601 10.3893C60.8418 10.3893 61.1123 10.3393 61.3715 10.2394C61.6419 10.1284 61.8786 9.97303 62.0814 9.77324C62.2843 9.57345 62.4421 9.32926 62.5548 9.04067C62.6787 8.75208 62.7407 8.42465 62.7407 8.05836C62.7407 7.69208 62.6787 7.36464 62.5548 7.07605C62.4421 6.78746 62.2843 6.54327 62.0814 6.34348C61.8786 6.14369 61.6419 5.99385 61.3715 5.89395C61.1123 5.78295 60.8418 5.72746 60.5601 5.72746C60.2671 5.72746 59.991 5.78295 59.7318 5.89395C59.4726 5.99385 59.2416 6.14369 59.0387 6.34348C58.8359 6.54327 58.6725 6.78746 58.5485 7.07605C58.4358 7.36464 58.3794 7.69208 58.3794 8.05836C58.3794 8.42465 58.4358 8.75208 58.5485 9.04067C58.6725 9.32926 58.8359 9.57345 59.0387 9.77324C59.2416 9.97303 59.4726 10.1284 59.7318 10.2394C59.991 10.3393 60.2671 10.3893 60.5601 10.3893Z" fill="white"/>
<path d="M72.4191 5.84367H69.2918V12.1372H67.0774V5.84367H65.5898V3.97895H67.0774V3.17978C67.0774 2.6803 67.1506 2.24187 67.2972 1.86448C67.4549 1.476 67.6747 1.15411 67.9564 0.898825C68.2381 0.632435 68.5706 0.432643 68.9538 0.299449C69.3369 0.155155 69.7595 0.0830078 70.2216 0.0830078C70.4469 0.0830078 70.6273 0.0941071 70.7625 0.116306C70.8977 0.138505 71.0273 0.171804 71.1513 0.216202L71.016 2.26407C70.9372 2.23077 70.847 2.20302 70.7456 2.18082C70.6442 2.15862 70.5146 2.14752 70.3568 2.14752C70.03 2.14752 69.7708 2.25297 69.5792 2.46386C69.3876 2.67475 69.2918 2.96334 69.2918 3.32962V3.97895H72.4191V1.48155H74.6335V3.97895H76.662V5.84367H74.6335V9.00704C74.6335 9.19574 74.6504 9.37333 74.6842 9.53982C74.7293 9.69521 74.8082 9.82841 74.9209 9.9394C75.0787 10.117 75.3041 10.2058 75.5971 10.2058C75.7886 10.2058 75.9408 10.1892 76.0535 10.1559C76.1662 10.1115 76.2732 10.056 76.3746 9.98935L77.0001 11.9041C76.7409 12.0262 76.4592 12.115 76.1549 12.1705C75.8619 12.2371 75.5351 12.2703 75.1745 12.2703C74.7575 12.2703 74.38 12.2093 74.0419 12.0872C73.7151 11.954 73.439 11.7764 73.2136 11.5544C72.6839 11.055 72.4191 10.3446 72.4191 9.42328V5.84367Z" fill="white"/>
<path fill-rule="evenodd" clip-rule="evenodd" d="M86 0C84.3431 0 83 1.34314 83 3V13C83 14.6569 84.3431 16 86 16H108C109.657 16 111 14.6569 111 13V3C111 1.34314 109.657 0 108 0H86ZM86 1C84.8954 1 84 1.89539 84 3V13C84 14.1046 84.8954 15 86 15H108C109.105 15 110 14.1046 110 13V3C110 1.89539 109.105 1 108 1H86Z" fill="#F3F5F5"/>
<path d="M87.5302 11V10.1136L89.6012 8.19602C89.7773 8.02557 89.9251 7.87216 90.0444 7.7358C90.1656 7.59943 90.2575 7.46591 90.32 7.33523C90.3825 7.20265 90.4137 7.05966 90.4137 6.90625C90.4137 6.7358 90.3749 6.58902 90.2972 6.46591C90.2196 6.34091 90.1135 6.24527 89.979 6.17898C89.8446 6.1108 89.6921 6.0767 89.5217 6.0767C89.3436 6.0767 89.1883 6.11269 89.0558 6.18466C88.9232 6.25663 88.8209 6.35985 88.7489 6.49432C88.677 6.62879 88.641 6.78883 88.641 6.97443H87.4734C87.4734 6.59375 87.5595 6.26326 87.7319 5.98295C87.9042 5.70265 88.1457 5.4858 88.4563 5.33239C88.7669 5.17898 89.1249 5.10227 89.5302 5.10227C89.9469 5.10227 90.3095 5.17614 90.6183 5.32386C90.9289 5.4697 91.1703 5.67235 91.3427 5.93182C91.515 6.19129 91.6012 6.48864 91.6012 6.82386C91.6012 7.04356 91.5576 7.26042 91.4705 7.47443C91.3853 7.68845 91.2328 7.92614 91.0131 8.1875C90.7934 8.44697 90.4838 8.75852 90.0842 9.12216L89.2347 9.95455V9.99432H91.6779V11H87.5302ZM94.8505 11.1278C94.3619 11.1259 93.9414 11.0057 93.5891 10.767C93.2388 10.5284 92.9689 10.1828 92.7795 9.73011C92.592 9.27746 92.4992 8.73295 92.5011 8.09659C92.5011 7.46212 92.5948 6.9214 92.7823 6.47443C92.9717 6.02746 93.2416 5.6875 93.592 5.45455C93.9442 5.2197 94.3638 5.10227 94.8505 5.10227C95.3372 5.10227 95.7558 5.2197 96.1062 5.45455C96.4585 5.68939 96.7293 6.0303 96.9187 6.47727C97.1081 6.92235 97.2018 7.46212 97.1999 8.09659C97.1999 8.73485 97.1052 9.2803 96.9158 9.73295C96.7283 10.1856 96.4594 10.5312 96.109 10.7699C95.7586 11.0085 95.3391 11.1278 94.8505 11.1278ZM94.8505 10.108C95.1838 10.108 95.4499 9.94034 95.6488 9.60511C95.8477 9.26989 95.9461 8.76705 95.9442 8.09659C95.9442 7.6553 95.8988 7.28788 95.8079 6.99432C95.7189 6.70076 95.592 6.48011 95.4272 6.33239C95.2643 6.18466 95.0721 6.1108 94.8505 6.1108C94.5191 6.1108 94.2539 6.27652 94.055 6.60795C93.8562 6.93939 93.7558 7.43561 93.7539 8.09659C93.7539 8.54356 93.7984 8.91667 93.8874 9.21591C93.9783 9.51326 94.1062 9.73674 94.271 9.88636C94.4357 10.0341 94.6289 10.108 94.8505 10.108ZM98.0771 11V10.1136L100.148 8.19602C100.324 8.02557 100.472 7.87216 100.591 7.7358C100.712 7.59943 100.804 7.46591 100.867 7.33523C100.929 7.20265 100.961 7.05966 100.961 6.90625C100.961 6.7358 100.922 6.58902 100.844 6.46591C100.766 6.34091 100.66 6.24527 100.526 6.17898C100.391 6.1108 100.239 6.0767 100.069 6.0767C99.8905 6.0767 99.7352 6.11269 99.6026 6.18466C99.4701 6.25663 99.3678 6.35985 99.2958 6.49432C99.2238 6.62879 99.1879 6.78883 99.1879 6.97443H98.0202C98.0202 6.59375 98.1064 6.26326 98.2788 5.98295C98.4511 5.70265 98.6926 5.4858 99.0032 5.33239C99.3138 5.17898 99.6718 5.10227 100.077 5.10227C100.494 5.10227 100.856 5.17614 101.165 5.32386C101.476 5.4697 101.717 5.67235 101.89 5.93182C102.062 6.19129 102.148 6.48864 102.148 6.82386C102.148 7.04356 102.105 7.26042 102.017 7.47443C101.932 7.68845 101.78 7.92614 101.56 8.1875C101.34 8.44697 101.031 8.75852 100.631 9.12216L99.7816 9.95455V9.99432H102.225V11H98.0771ZM102.903 9.97727V9.00852L105.332 5.18182H106.167V6.52273H105.673L104.142 8.94602V8.99148H107.593V9.97727H102.903ZM105.696 11V9.68182L105.718 9.25284V5.18182H106.872V11H105.696Z" fill="#F3F5F5"/>
</g>
<defs>
<clipPath id="clip0_2736_590">
<rect width="111" height="16" fill="white"/>
</clipPath>
</defs>
</svg>
